<svg width="150" height="150" viewBox="0 0 150 150" fill="none" xmlns="http://www.w3.org/2000/svg">
  <rect width="150" height="150" rx="75" fill="#FFF0F3"/>
  <path d="M75 28C48.49 28 27 49.49 27 76C27 102.51 48.49 124 75 124C101.51 124 123 102.51 123 76C123 49.49 101.51 28 75 28ZM75 36C97.09 36 115 53.91 115 76C115 98.09 97.09 116 75 116C52.91 116 35 98.09 35 76C35 53.91 52.91 36 75 36Z" fill="#E11D48"/>
  <path d="M75 46C58.43 46 45 59.43 45 76C45 92.57 58.43 106 75 106C91.57 106 105 92.57 105 76C105 59.43 91.57 46 75 46ZM75 54C87.15 54 97 63.85 97 76C97 88.15 87.15 98 75 98C62.85 98 53 88.15 53 76C53 63.85 62.85 54 75 54Z" fill="#E11D48"/>
  <path d="M75 64C69.48 64 65 68.48 65 74C65 79.52 69.48 84 75 84C80.52 84 85 79.52 85 74C85 68.48 80.52 64 75 64Z" fill="#E11D48"/>
</svg> 